:SAMPLES-PER-SECOND 30
:FULLY-SPECIFIED
:DEGREES
343
root  6.87522 32.583 -5.9643 16.4741 -44.4071 -3.07376
RightUpLeg  -55.5933 -4.71137 11.6824
RightLeg  68.9633 -6.54687 -18.937
RightFoot  -22.069 0.367616 5.50654
RightToes  5.82063e-011 0 -3.6325e-017
Spine  47.0761 -2.17314 7.22267
Spine1  -19.3652 1.12444 -5.81347
HEad  -50.9119 -17.6378 16.615
LeftShoulder1  0.0796861 4.46619 19.1063
LeftArm  113.062 -74.761 167.39
LeftForeArm  135.492 -77.5269 -128.878
LeftHand  -0.95892 1.56467 28.7841
RightShoulder  -0.21335 -0.727126 -18.4264
RightArm  -72.4707 57.1911 -24.0499
RightForeArm  -6.37598 -6.05707 2.06915
RightHand  0.125949 -9.29694 -5.00861
LeftUpLeg  -60.3151 -14.7861 7.85987
LeftLeg  67.8748 -1.56933 -3.4695
LeftFoot  -20.5721 -0.384755 -6.28809
LeftToes  -1.1369e-010 2.7689e-011 -1.90827e-011
344
root  6.82205 32.6702 -5.90058 16.5681 -44.5279 -2.77673
RightUpLeg  -55.6553 -4.82286 11.4933
RightLeg  68.6908 -6.58804 -18.7734
RightFoot  -21.8452 0.330243 5.20196
RightToes  5.82063e-011 0 -3.6325e-017
Spine  47.1431 -2.16238 6.96377
Spine1  -19.3886 1.04803 -5.74926
HEad  -51.161 -17.4087 16.5838
LeftShoulder1  0.0888161 4.56993 19.1743
LeftArm  113.379 -74.7946 167.066
LeftForeArm  135.414 -77.5772 -128.636
LeftHand  -0.951955 1.61605 28.9574
RightShoulder  -0.212617 -0.628814 -18.3769
RightArm  -72.8114 57.1847 -24.5876
RightForeArm  -6.42084 -6.05593 2.06693
RightHand  0.125143 -9.27148 -4.99684
LeftUpLeg  -60.3249 -14.9364 7.70095
LeftLeg  67.5226 -1.48182 -3.16881
LeftFoot  -20.1968 -0.350592 -6.08691
LeftToes  -1.1369e-010 2.7689e-011 -1.90827e-011
345
root  6.76881 32.7343 -5.84223 16.6495 -44.58 -2.46835
RightUpLeg  -55.778 -4.88516 11.2714
RightLeg  68.542 -6.59504 -18.6467
RightFoot  -21.6665 0.308109 5.03409
RightToes  5.82063e-011 0 -3.6325e-017
Spine  47.2017 -2.22883 6.86564
Spine1  -19.4304 0.957929 -5.86642
HEad  -51.1754 -17.4712 16.3332
LeftShoulder1  0.0945545 4.61115 19.2908
LeftArm  113.189 -74.8715 167.115
LeftForeArm  135.105 -77.646 -128.249
LeftHand  -0.964796 1.58327 29.0916
RightShoulder  -0.205809 -0.666483 -18.2721
RightArm  -73.4444 57.2639 -25.0458
RightForeArm  -6.25783 -6.03578 1.93369
RightHand  0.125318 -9.27126 -4.9662
LeftUpLeg  -60.3869 -14.9909 7.47974
LeftLeg  67.2784 -1.43007 -2.99
LeftFoot  -19.8989 -0.32914 -5.98894
LeftToes  -1.1369e-010 2.7689e-011 -1.90827e-011
346
root  6.71665 32.7753 -5.78676 16.7776 -44.6166 -2.31741
RightUpLeg  -55.8907 -4.8139 11.1141
RightLeg  68.5177 -6.5867 -18.6025
RightFoot  -21.4536 0.296056 4.98811
RightToes  5.82063e-011 0 -3.6325e-017
Spine  47.2657 -2.29165 6.96752
Spine1  -19.3826 0.939095 -6.01144
HEad  -51.0948 -17.7168 15.9749
LeftShoulder1  0.0988904 4.5675 19.3174
LeftArm  113.125 -74.9663 167.035
LeftForeArm  134.722 -77.6791 -127.999
LeftHand  -0.969345 1.55562 29.0198
RightShoulder  -0.202251 -0.79032 -18.4094
RightArm  -73.5083 57.2339 -25.0865
RightForeArm  -6.5172 -6.0269 1.90748
RightHand  0.125879 -9.33546 -4.99958
LeftUpLeg  -60.4665 -14.9014 7.30733
LeftLeg  67.2117 -1.41725 -2.94577
LeftFoot  -19.6657 -0.309177 -5.86381
LeftToes  -1.1369e-010 2.7689e-011 -1.90827e-011
347
root  6.66642 32.7945 -5.72854 16.8707 -44.6185 -2.28452
RightUpLeg  -55.9412 -4.70305 11.0176
RightLeg  68.6211 -6.57121 -18.6635
RightFoot  -21.2425 0.290324 5.01225
RightToes  5.82063e-011 0 -3.6325e-017
Spine  47.3698 -2.35773 7.13958
Spine1  -19.2207 0.940834 -6.03569
HEad  -51.0263 -17.8645 15.7358
LeftShoulder1  0.102279 4.55736 19.2521
LeftArm  113.283 -75.0273 166.822
LeftForeArm  134.643 -77.6588 -128.07
LeftHand  -0.950909 1.61359 28.909
RightShoulder  -0.20685 -0.85273 -18.7547
RightArm  -73.2366 57.1305 -25.0522
RightForeArm  -7.0367 -6.03153 1.98603
RightHand  0.1284 -9.38345 -5.0883
LeftUpLeg  -60.4983 -14.8251 7.20597
LeftLeg  67.2881 -1.41832 -2.96142
LeftFoot  -19.5011 -0.287864 -5.67065
LeftToes  -1.1369e-010 2.7689e-011 -1.90827e-011
348
root  6.61763 32.7949 -5.66644 16.9024 -44.5794 -2.24396
RightUpLeg  -55.9916 -4.66367 10.9271
RightLeg  68.8284 -6.52048 -18.7365
RightFoot  -21.1115 0.293931 5.11143
RightToes  5.82063e-011 0 -3.6325e-017
Spine  47.481 -2.48288 7.26865
Spine1  -19.0654 0.874634 -6.03334
HEad  -50.9534 -17.7596 15.7833
LeftShoulder1  0.103844 4.65666 19.2459
LeftArm  113.294 -75.0294 166.79
LeftForeArm  134.892 -77.6248 -128.288
LeftHand  -0.93623 1.67366 28.9221
RightShoulder  -0.208497 -0.858094 -18.9309
RightArm  -73.577 57.1747 -25.4203
RightForeArm  -7.10764 -6.02379 1.94825
RightHand  0.133862 -9.34365 -5.20383
LeftUpLeg  -60.513 -14.8619 7.12531
LeftLeg  67.4293 -1.39877 -2.9328
LeftFoot  -19.4218 -0.273029 -5.51016
LeftToes  -1.1369e-010 2.7689e-011 -1.90827e-011
349
root  6.57074 32.7884 -5.60541 16.9559 -44.5454 -2.14639
RightUpLeg  -56.1236 -4.68085 10.8089
RightLeg  69.048 -6.42676 -18.7117
RightFoot  -21.0614 0.306131 5.27716
RightToes  5.82063e-011 0 -3.6325e-017
Spine  47.5626 -2.60757 7.33718
Spine1  -19.052 0.796159 -6.10842
HEad  -50.8559 -17.5148 16.0591
LeftShoulder1  0.102542 4.71364 19.3698
LeftArm  113.069 -75.0071 166.954
LeftForeArm  135.145 -77.6099 -128.421
LeftHand  -0.944691 1.64355 28.9484
RightShoulder  -0.201319 -0.915089 -18.8104
RightArm  -74.2967 57.3121 -25.9627
RightForeArm  -6.80848 -6.00842 1.82878
RightHand  0.14107 -9.26339 -5.36132
LeftUpLeg  -60.6091 -14.9455 7.02373
LeftLeg  67.5805 -1.34416 -2.81104
LeftFoot  -19.3764 -0.266554 -5.44537
LeftToes  -1.1369e-010 2.7689e-011 -1.90827e-011
350
root  6.52832 32.7907 -5.5491 17.0612 -44.5497 -2.03052
RightUpLeg  -56.2868 -4.69272 10.6782
RightLeg  69.1841 -6.33634 -18.6114
RightFoot  -21.0302 0.317249 5.42327
RightToes  5.82063e-011 0 -3.6325e-017
Spine  47.6856 -2.64396 7.38183
Spine1  -19.1981 0.807707 -6.2138
HEad  -50.8017 -17.3292 16.3671
LeftShoulder1  0.093532 4.58396 19.5372
LeftArm  112.925 -75.0173 167.034
LeftForeArm  135.335 -77.5849 -128.582
LeftHand  -0.952371 1.60435 28.8832
RightShoulder  -0.18998 -1.01457 -18.6551
RightArm  -74.351 57.2819 -26.1741
RightForeArm  -6.8304 -6.01547 1.872
RightHand  0.146592 -9.23435 -5.51961
LeftUpLeg  -60.7716 -14.9932 6.90831
LeftLeg  67.7089 -1.27976 -2.65689
LeftFoot  -19.282 -0.261319 -5.42678
LeftToes  -1.1369e-010 2.7689e-011 -1.90827e-011
351
root  6.49421 32.8062 -5.49557 17.1558 -44.5926 -1.94327
RightUpLeg  -56.3887 -4.68856 10.569
RightLeg  69.2447 -6.28326 -18.5322
RightFoot  -20.9439 0.320032 5.48906
RightToes  5.82063e-011 0 -3.6325e-017
Spine  47.9212 -2.63106 7.42158
Spine1  -19.3932 0.872002 -6.25943
HEad  -50.8748 -17.2287 16.5476
LeftShoulder1  0.0804964 4.4246 19.6292
LeftArm  113.101 -75.0599 166.84
LeftForeArm  135.689 -77.5167 -128.974
LeftHand  -0.935705 1.667 28.8568
RightShoulder  -0.186678 -1.05999 -18.6735
RightArm  -73.8918 57.0988 -26.1774
RightForeArm  -7.23613 -6.03578 2.03105
RightHand  0.147167 -9.27801 -5.56546
LeftUpLeg  -60.8855 -14.9838 6.79505
LeftLeg  67.7951 -1.24455 -2.57346
LeftFoot  -19.1102 -0.249675 -5.3606
LeftToes  -1.1369e-010 2.7689e-011 -1.90827e-011
352
root  6.47249 32.8306 -5.43971 17.2463 -44.6972 -1.86908
RightUpLeg  -56.5185 -4.65556 10.4567
RightLeg  69.3222 -6.23241 -18.4752
RightFoot  -20.6972 0.318641 5.5457
RightToes  5.82063e-011 0 -3.6325e-017
Spine  48.171 -2.64455 7.42739
Spine1  -19.5201 0.883007 -6.21929
HEad  -51.0613 -17.082 16.5552
LeftShoulder1  0.0837976 4.46556 19.6
LeftArm  113.473 -75.0802 166.452
LeftForeArm  136.21 -77.4354 -129.459
LeftHand  -0.913143 1.77294 28.9814
RightShoulder  -0.190838 -1.04319 -18.8003
RightArm  -73.9862 57.0153 -26.4274
RightForeArm  -7.50689 -6.02999 2.02504
RightHand  0.143906 -9.32304 -5.48586
LeftUpLeg  -60.9721 -14.9003 6.65837
LeftLeg  67.8345 -1.23529 -2.55381
LeftFoot  -18.8359 -0.226565 -5.17937
LeftToes  -1.1369e-010 2.7689e-011 -1.90827e-011
353
root  6.4655 32.8668 -5.37872 17.4264 -44.8886 -1.73544
RightUpLeg  -56.8718 -4.55019 10.2505
RightLeg  69.4558 -6.13445 -18.348
RightFoot  -20.1861 0.307824 5.70296
RightToes  5.82063e-011 0 -3.6325e-017
Spine  48.2915 -2.67619 7.37929
Spine1  -19.5855 0.829419 -6.16995
HEad  -51.276 -16.8569 16.4814
LeftShoulder1  0.0968424 4.62167 19.5385
LeftArm  113.781 -75.0793 166.089
LeftForeArm  136.631 -77.3924 -129.749
LeftHand  -0.907372 1.81882 29.1625
RightShoulder  -0.193177 -1.03841 -18.8925
RightArm  -74.6696 57.0696 -26.9051
RightForeArm  -7.53287 -6.00029 1.85492
RightHand  0.139921 -9.26731 -5.43727
LeftUpLeg  -61.2048 -14.7533 6.45434
LeftLeg  67.824 -1.20187 -2.46234
LeftFoot  -18.3609 -0.191066 -4.90545
LeftToes  -1.1369e-010 2.7689e-011 -1.90827e-011
354
root  6.47139 32.9229 -5.31751 17.6826 -45.1056 -1.51151
RightUpLeg  -57.4186 -4.39891 9.92028
RightLeg  69.5774 -6.00536 -18.1231
RightFoot  -19.4489 0.289316 5.94165
RightToes  5.82063e-011 0 -3.6325e-017
Spine  48.3344 -2.72012 7.32781
Spine1  -19.6606 0.760316 -6.25026
HEad  -51.4709 -16.698 16.4767
LeftShoulder1  0.101274 4.66086 19.6437
LeftArm  113.989 -75.1381 165.794
LeftForeArm  136.828 -77.3836 -129.836
LeftHand  -0.904328 1.84574 29.2822
RightShoulder  -0.18892 -1.08708 -18.8763
RightArm  -75.0999 57.0874 -27.3243
RightForeArm  -7.61352 -5.98572 1.77855
RightHand  0.136839 -9.09966 -5.55129
LeftUpLeg  -61.6143 -14.6401 6.19386
LeftLeg  67.76 -1.11625 -2.2225
LeftFoot  -17.625 -0.15091 -4.67166
LeftToes  -1.1369e-010 2.7689e-011 -1.90827e-011
355
root  6.48562 32.9962 -5.26557 17.8745 -45.2422 -1.27731
RightUpLeg  -57.8797 -4.30454 9.57207
RightLeg  69.602 -5.90359 -17.8731
RightFoot  -18.6777 0.266732 6.131
RightToes  5.82063e-011 0 -3.6325e-017
Spine  48.4704 -2.83 7.33433
Spine1  -19.717 0.682287 -6.47621
HEad  -51.6373 -16.7013 16.5551
LeftShoulder1  0.101341 4.62278 19.9837
LeftArm  114.259 -75.2833 165.372
LeftForeArm  136.896 -77.3658 -129.928
LeftHand  -0.886473 1.91635 29.2872
RightShoulder  -0.178238 -1.18849 -18.7507
RightArm  -75.269 57.0573 -27.7577
RightForeArm  -7.78839 -5.98962 1.81934
RightHand  0.1378 -8.96548 -5.74996
LeftUpLeg  -61.9929 -14.6353 5.95051
LeftLeg  67.65 -1.01792 -1.94399
LeftFoot  -16.7447 -0.116566 -4.59646
LeftToes  -1.1369e-010 2.7689e-011 -1.90827e-011
356
root  6.50649 33.077 -5.22297 17.9775 -45.3075 -1.13489
RightUpLeg  -58.1149 -4.28098 9.31058
RightLeg  69.5047 -5.85527 -17.6485
RightFoot  -17.9993 0.239671 6.21374
RightToes  5.82063e-011 0 -3.6325e-017
Spine  48.718 -2.99145 7.37545
Spine1  -19.6808 0.599341 -6.6564
HEad  -51.7068 -16.7681 16.5563
LeftShoulder1  0.110586 4.68856 20.3003
LeftArm  114.57 -75.4352 164.824
LeftForeArm  136.91 -77.3227 -130.112
LeftHand  -0.872588 1.94987 29.1154
RightShoulder  -0.166519 -1.30569 -18.6257
RightArm  -75.8621 57.1026 -28.3671
RightForeArm  -7.84992 -5.97577 1.74528
RightHand  0.139795 -9.00141 -5.87938
LeftUpLeg  -62.1988 -14.6531 5.7701
LeftLeg  67.4889 -0.962721 -1.77844
LeftFoot  -15.9108 -0.0896898 -4.63568
LeftToes  -1.1369e-010 2.7689e-011 -1.90827e-011
357
root  6.53518 33.1629 -5.17708 18.1528 -45.4318 -1.07788
RightUpLeg  -58.3035 -4.21132 9.10075
RightLeg  69.3084 -5.84428 -17.4321
RightFoot  -17.3561 0.212166 6.27487
RightToes  5.82063e-011 0 -3.6325e-017
Spine  48.932 -3.08419 7.38623
Spine1  -19.6268 0.566027 -6.64168
HEad  -51.5825 -16.7703 16.4073
LeftShoulder1  0.118108 4.77178 20.2776
LeftArm  114.621 -75.5321 164.587
LeftForeArm  136.864 -77.2818 -130.271
LeftHand  -0.883689 1.87208 28.8421
RightShoulder  -0.164055 -1.34449 -18.6556
RightArm  -76.6953 57.1752 -28.8491
RightForeArm  -7.76281 -5.94011 1.52915
RightHand  0.139098 -9.11276 -5.96761
LeftUpLeg  -62.3456 -14.5597 5.62462
LeftLeg  67.2393 -0.948855 -1.7168
LeftFoot  -15.1993 -0.065674 -4.65049
LeftToes  -1.1369e-010 2.7689e-011 -1.90827e-011
